<?xml version="1.0" encoding="utf-8"?>
<!-- Generator: Adobe Illustrator 16.0.0, SVG Export Plug-In . SVG Version: 6.00 Build 0)  -->
<!DOCTYPE svg PUBLIC "-//W3C//DTD SVG 1.1//EN" "http://www.w3.org/Graphics/SVG/1.1/DTD/svg11.dtd">
<svg version="1.1" id="Layer_1" xmlns="http://www.w3.org/2000/svg" xmlns:xlink="http://www.w3.org/1999/xlink" x="0px" y="0px"
	 width="17.167px" height="11px" viewBox="0 0 17.167 11" enable-background="new 0 0 17.167 11" xml:space="preserve">
<g>
	<path d="M3.27,10.717v0.205c-0.652-0.09-1.183-0.354-1.591-0.794S1.066,9.201,1.066,8.666c0-0.281,0.045-0.608,0.135-0.981
		s0.135-0.663,0.135-0.87c0-0.281-0.118-0.544-0.354-0.788S0.418,5.633,0,5.578v-0.24c0.418-0.055,0.745-0.203,0.981-0.445
		s0.354-0.506,0.354-0.791c0-0.207-0.045-0.496-0.135-0.867S1.066,2.535,1.066,2.25c0-0.531,0.204-1.018,0.612-1.459
		S2.617,0.086,3.27,0v0.205C2.812,0.314,2.478,0.493,2.265,0.741S1.945,1.262,1.945,1.559c0,0.23,0.044,0.534,0.132,0.911
		s0.132,0.698,0.132,0.964c0,0.395-0.145,0.777-0.434,1.148S1.055,5.24,0.48,5.443c0.562,0.207,0.991,0.5,1.286,0.879
		s0.442,0.766,0.442,1.16c0,0.266-0.044,0.587-0.132,0.964S1.945,9.127,1.945,9.357c0,0.297,0.106,0.569,0.319,0.817
		S2.812,10.604,3.27,10.717z"/>
	<path d="M9,4.881l1.705,2.543c0.473,0.703,0.823,1.147,1.052,1.333s0.519,0.288,0.87,0.308v0.217h-3.41V9.065
		c0.227-0.004,0.395-0.027,0.504-0.07C9.803,8.959,9.87,8.906,9.923,8.833s0.079-0.146,0.079-0.22c0-0.09-0.018-0.18-0.053-0.27
		C9.922,8.278,9.814,8.106,9.627,7.829L8.279,5.79L6.615,7.922C6.439,8.149,6.334,8.3,6.299,8.376S6.246,8.532,6.246,8.614
		c0,0.125,0.053,0.229,0.158,0.311s0.307,0.129,0.604,0.141v0.217H4.189V9.065c0.199-0.02,0.371-0.061,0.516-0.123
		c0.242-0.102,0.473-0.238,0.691-0.41s0.469-0.436,0.75-0.791l1.875-2.367L6.457,3.083C6.031,2.461,5.67,2.054,5.373,1.861
		S4.734,1.565,4.348,1.553V1.336h3.674v0.217C7.709,1.565,7.495,1.616,7.38,1.706S7.207,1.895,7.207,2.004
		c0,0.145,0.094,0.355,0.281,0.633l1.219,1.822l1.412-1.787c0.164-0.211,0.265-0.355,0.302-0.434s0.056-0.158,0.056-0.24
		s-0.023-0.154-0.07-0.217c-0.059-0.082-0.133-0.14-0.223-0.173S9.908,1.557,9.627,1.553V1.336h2.818v0.217
		C12.223,1.565,12.041,1.6,11.9,1.659c-0.211,0.09-0.404,0.211-0.58,0.363s-0.424,0.434-0.744,0.844L9,4.881z"/>
	<path d="M13.805,0.205V0c0.652,0.086,1.183,0.349,1.591,0.788s0.612,0.929,0.612,1.468c0,0.281-0.045,0.607-0.135,0.979
		s-0.135,0.66-0.135,0.867c0,0.281,0.118,0.544,0.354,0.788s0.563,0.394,0.981,0.448v0.24c-0.418,0.055-0.745,0.204-0.981,0.448
		s-0.354,0.507-0.354,0.788c0,0.207,0.045,0.497,0.135,0.87s0.135,0.7,0.135,0.981c0,0.531-0.204,1.018-0.612,1.459
		s-0.938,0.707-1.591,0.797v-0.205c0.457-0.113,0.792-0.293,1.005-0.539s0.319-0.52,0.319-0.82c0-0.23-0.045-0.534-0.135-0.911
		s-0.135-0.696-0.135-0.958c0-0.398,0.146-0.783,0.437-1.154s0.724-0.658,1.298-0.861c-0.562-0.207-0.992-0.5-1.289-0.879
		s-0.445-0.766-0.445-1.16c0-0.266,0.045-0.587,0.135-0.964s0.135-0.681,0.135-0.911c0-0.297-0.106-0.569-0.319-0.817
		S14.262,0.314,13.805,0.205z"/>
</g>
</svg>
