<?xml version="1.0" encoding="utf-8"?>
<!-- Generator: Adobe Illustrator 16.0.0, SVG Export Plug-In . SVG Version: 6.00 Build 0)  -->
<!DOCTYPE svg PUBLIC "-//W3C//DTD SVG 1.1//EN" "http://www.w3.org/Graphics/SVG/1.1/DTD/svg11.dtd">
<svg version="1.1" id="Layer_1" xmlns="http://www.w3.org/2000/svg" xmlns:xlink="http://www.w3.org/1999/xlink" x="0px" y="0px"
	 width="100px" height="64px" viewBox="-80.917 14 100 64" enable-background="new -80.917 14 100 64" xml:space="preserve">
<g>
	<path fill="#FFFFFF" d="M-61.713,76.734v1.199c-3.815-0.525-6.921-2.067-9.303-4.643c-2.387-2.576-3.586-5.42-3.586-8.549
		c0-1.646,0.263-3.553,0.788-5.733c0.526-2.182,0.788-3.884,0.788-5.094c0-1.64-0.691-3.176-2.067-4.604
		c-1.382-1.427-3.301-2.307-5.745-2.626V45.28c2.444-0.32,4.357-1.188,5.739-2.604c1.376-1.416,2.067-2.957,2.067-4.625
		c0-1.211-0.263-2.9-0.788-5.071c-0.525-2.164-0.783-4.089-0.783-5.756c0-3.106,1.193-5.95,3.581-8.532
		c2.381-2.581,5.488-4.123,9.309-4.625v1.199c-2.679,0.64-4.631,1.685-5.876,3.135c-1.25,1.451-1.873,3.044-1.873,4.78
		c0,1.348,0.257,3.123,0.771,5.333c0.514,2.205,0.771,4.077,0.771,5.631c0,2.312-0.845,4.545-2.536,6.715
		c-1.69,2.171-4.209,3.85-7.572,5.037c3.284,1.211,5.796,2.924,7.521,5.14s2.581,4.478,2.581,6.784c0,1.554-0.257,3.427-0.771,5.631
		c-0.514,2.21-0.765,3.986-0.765,5.333c0,1.736,0.617,3.324,1.867,4.774C-66.351,75.01-64.392,76.072-61.713,76.734z"/>
	<path fill="#FFFFFF" d="M-28.21,42.533l9.971,14.711c2.77,4.068,4.814,6.632,6.156,7.711c1.336,1.08,3.032,1.667,5.083,1.78v1.259
		h-19.941v-1.259c1.331-0.022,2.313-0.153,2.952-0.402c0.48-0.208,0.874-0.513,1.182-0.938c0.309-0.424,0.457-0.841,0.457-1.271
		c0-0.52-0.102-1.041-0.308-1.565c-0.16-0.378-0.788-1.372-1.884-2.972l-7.881-11.794l-9.73,12.331
		c-1.028,1.312-1.645,2.188-1.85,2.628c-0.2,0.439-0.309,0.903-0.309,1.377c0,0.724,0.309,1.323,0.925,1.797
		c0.611,0.475,1.793,0.751,3.53,0.819V68H-56.34v-1.265c1.165-0.113,2.17-0.351,3.015-0.713c1.416-0.588,2.77-1.371,4.043-2.366
		c1.273-1,2.741-2.524,4.386-4.575l10.964-13.694l-9.148-13.252c-2.49-3.6-4.603-5.95-6.339-7.067
		c-1.736-1.12-3.734-1.718-5.99-1.785v-1.255h21.483v1.255c-1.833,0.067-3.083,0.366-3.757,0.886
		c-0.668,0.521-1.011,1.091-1.011,1.724c0,0.835,0.548,2.056,1.645,3.66l7.127,10.542l8.257-10.339
		c0.96-1.22,1.553-2.055,1.771-2.508c0.217-0.457,0.326-0.915,0.326-1.389c0-0.476-0.131-0.893-0.405-1.254
		c-0.349-0.477-0.783-0.814-1.308-1.007c-0.531-0.187-1.616-0.294-3.261-0.315v-1.255h16.481v1.255
		c-1.297,0.067-2.365,0.271-3.187,0.615c-1.233,0.521-2.364,1.22-3.392,2.097c-1.027,0.881-2.479,2.513-4.351,4.886L-28.21,42.533z"
		/>
	<path fill="#FFFFFF" d="M-0.108,15.266v-1.199c3.809,0.502,6.916,2.044,9.303,4.608c2.387,2.563,3.574,5.431,3.574,8.583
		c0,1.645-0.263,3.552-0.787,5.722c-0.525,2.182-0.788,3.86-0.788,5.071c0,1.645,0.69,3.187,2.066,4.614
		c1.383,1.422,3.296,2.301,5.745,2.615v1.405c-2.449,0.319-4.362,1.193-5.745,2.615c-1.376,1.427-2.066,2.97-2.066,4.614
		c0,1.21,0.263,2.9,0.788,5.082c0.524,2.182,0.787,4.095,0.787,5.739c0,3.101-1.188,5.956-3.574,8.531s-5.482,4.135-9.303,4.659
		v-1.199c2.672-0.655,4.631-1.712,5.876-3.151c1.244-1.434,1.861-3.038,1.861-4.792c0-1.347-0.263-3.123-0.788-5.333
		c-0.525-2.204-0.788-4.066-0.788-5.596c0-2.331,0.856-4.581,2.558-6.751s4.231-3.849,7.583-5.036
		c-3.277-1.211-5.796-2.924-7.532-5.14c-1.742-2.216-2.604-4.478-2.604-6.784c0-1.554,0.263-3.426,0.794-5.631
		c0.525-2.21,0.789-3.985,0.789-5.333c0-1.736-0.623-3.323-1.868-4.774C4.529,16.955,2.564,15.905-0.108,15.266z"/>
</g>
</svg>
